<mxfile host="app.diagrams.net" agent="Mozilla/5.0 (Windows NT 10.0; Win64; x64) AppleWebKit/537.36 (KHTML, like Gecko) Chrome/134.0.0.0 Safari/537.36" version="26.1.3">
  <diagram name="Page-1" id="ugFlNR8z2zTQlDkHk_9h">
    <mxGraphModel dx="1050" dy="557" grid="1" gridSize="10" guides="1" tooltips="1" connect="1" arrows="1" fold="1" page="1" pageScale="1" pageWidth="827" pageHeight="1169" math="0" shadow="0">
      <root>
        <mxCell id="0" />
        <mxCell id="1" parent="0" />
        <mxCell id="9S_UlMoYAAx8TZQhM4NM-1" value="Exhibit Information and Interaction" style="shape=umlFrame;whiteSpace=wrap;html=1;pointerEvents=0;recursiveResize=0;container=1;collapsible=0;width=160;" parent="1" vertex="1">
          <mxGeometry x="130" y="310" width="386" height="260" as="geometry" />
        </mxCell>
        <mxCell id="9S_UlMoYAAx8TZQhM4NM-32" value="View Exhibit Information" style="ellipse;whiteSpace=wrap;html=1;" parent="9S_UlMoYAAx8TZQhM4NM-1" vertex="1">
          <mxGeometry x="122" y="60" width="74" height="50" as="geometry" />
        </mxCell>
        <mxCell id="9S_UlMoYAAx8TZQhM4NM-34" value="Listen audio transcript" style="ellipse;whiteSpace=wrap;html=1;" parent="9S_UlMoYAAx8TZQhM4NM-1" vertex="1">
          <mxGeometry x="170" y="150" width="74" height="50" as="geometry" />
        </mxCell>
        <mxCell id="9S_UlMoYAAx8TZQhM4NM-35" value="View all Exhibits" style="ellipse;whiteSpace=wrap;html=1;" parent="9S_UlMoYAAx8TZQhM4NM-1" vertex="1">
          <mxGeometry x="26" y="50" width="74" height="50" as="geometry" />
        </mxCell>
        <mxCell id="9S_UlMoYAAx8TZQhM4NM-37" value="Search Exhibits" style="ellipse;whiteSpace=wrap;html=1;" parent="9S_UlMoYAAx8TZQhM4NM-1" vertex="1">
          <mxGeometry x="80" y="190" width="74" height="50" as="geometry" />
        </mxCell>
        <mxCell id="WeGpHFScTTGY2h0t6W2n-1" value="&amp;lt;&amp;lt;extend&amp;gt;&amp;gt;" style="html=1;verticalAlign=bottom;labelBackgroundColor=none;endArrow=open;endFill=0;dashed=1;rounded=0;exitX=0.319;exitY=0.02;exitDx=0;exitDy=0;exitPerimeter=0;entryX=0.676;entryY=1.02;entryDx=0;entryDy=0;entryPerimeter=0;" parent="9S_UlMoYAAx8TZQhM4NM-1" source="9S_UlMoYAAx8TZQhM4NM-34" target="9S_UlMoYAAx8TZQhM4NM-32" edge="1">
          <mxGeometry x="-0.3203" y="-16" width="160" relative="1" as="geometry">
            <mxPoint x="206" y="140" as="sourcePoint" />
            <mxPoint x="366" y="140" as="targetPoint" />
            <mxPoint x="-1" as="offset" />
          </mxGeometry>
        </mxCell>
        <mxCell id="c9b1kKpPYIAh-1ihsg3H-2" value="Provide Exhibit Information" style="ellipse;whiteSpace=wrap;html=1;" parent="9S_UlMoYAAx8TZQhM4NM-1" vertex="1">
          <mxGeometry x="250" y="105" width="74" height="50" as="geometry" />
        </mxCell>
        <mxCell id="9S_UlMoYAAx8TZQhM4NM-14" value="User" style="shape=umlActor;verticalLabelPosition=bottom;verticalAlign=top;html=1;" parent="1" vertex="1">
          <mxGeometry x="70" y="410" width="30" height="60" as="geometry" />
        </mxCell>
        <mxCell id="F3MQa0JkcNlx0FsRCvM1-1" value="" style="endArrow=open;endFill=1;endSize=12;html=1;rounded=0;entryX=0.07;entryY=0.724;entryDx=0;entryDy=0;entryPerimeter=0;" parent="1" source="9S_UlMoYAAx8TZQhM4NM-14" target="9S_UlMoYAAx8TZQhM4NM-35" edge="1">
          <mxGeometry width="160" relative="1" as="geometry">
            <mxPoint x="330" y="490" as="sourcePoint" />
            <mxPoint x="490" y="490" as="targetPoint" />
          </mxGeometry>
        </mxCell>
        <mxCell id="F3MQa0JkcNlx0FsRCvM1-2" value="" style="endArrow=open;endFill=1;endSize=12;html=1;rounded=0;entryX=0;entryY=1;entryDx=0;entryDy=0;" parent="1" source="9S_UlMoYAAx8TZQhM4NM-14" target="9S_UlMoYAAx8TZQhM4NM-32" edge="1">
          <mxGeometry width="160" relative="1" as="geometry">
            <mxPoint x="92" y="454.5" as="sourcePoint" />
            <mxPoint x="252" y="454.5" as="targetPoint" />
          </mxGeometry>
        </mxCell>
        <mxCell id="F3MQa0JkcNlx0FsRCvM1-3" value="" style="endArrow=open;endFill=1;endSize=12;html=1;rounded=0;entryX=0;entryY=0.5;entryDx=0;entryDy=0;" parent="1" source="9S_UlMoYAAx8TZQhM4NM-14" target="9S_UlMoYAAx8TZQhM4NM-37" edge="1">
          <mxGeometry width="160" relative="1" as="geometry">
            <mxPoint x="110" y="448" as="sourcePoint" />
            <mxPoint x="273" y="423" as="targetPoint" />
          </mxGeometry>
        </mxCell>
        <mxCell id="F3MQa0JkcNlx0FsRCvM1-4" value="" style="endArrow=open;endFill=1;endSize=12;html=1;rounded=0;entryX=0;entryY=0.5;entryDx=0;entryDy=0;" parent="1" source="9S_UlMoYAAx8TZQhM4NM-14" target="9S_UlMoYAAx8TZQhM4NM-34" edge="1">
          <mxGeometry width="160" relative="1" as="geometry">
            <mxPoint x="120" y="458" as="sourcePoint" />
            <mxPoint x="283" y="433" as="targetPoint" />
          </mxGeometry>
        </mxCell>
        <mxCell id="c9b1kKpPYIAh-1ihsg3H-1" value="Museum" style="shape=umlActor;verticalLabelPosition=bottom;verticalAlign=top;html=1;outlineConnect=0;" parent="1" vertex="1">
          <mxGeometry x="550" y="410" width="30" height="60" as="geometry" />
        </mxCell>
        <mxCell id="c9b1kKpPYIAh-1ihsg3H-3" value="" style="endArrow=open;endFill=1;endSize=12;html=1;rounded=0;entryX=1;entryY=0.5;entryDx=0;entryDy=0;" parent="1" source="c9b1kKpPYIAh-1ihsg3H-1" target="c9b1kKpPYIAh-1ihsg3H-2" edge="1">
          <mxGeometry width="160" relative="1" as="geometry">
            <mxPoint x="110" y="448" as="sourcePoint" />
            <mxPoint x="273" y="423" as="targetPoint" />
          </mxGeometry>
        </mxCell>
      </root>
    </mxGraphModel>
  </diagram>
</mxfile>
